<?xml version="1.0" encoding="UTF-8"?>
<svg width="180" height="180" viewBox="0 0 180 180" xmlns="http://www.w3.org/2000/svg">
  <!-- White background -->
  <rect x="18" y="51.839999999999996" width="144" height="76.32000000000001" fill="white"/>
  
  <!-- Red stripes -->
  <rect x="18" y="51.839999999999996" width="144" height="5.870769230769231" fill="#B22234"/><rect x="18" y="63.58153846153846" width="144" height="5.870769230769231" fill="#B22234"/><rect x="18" y="75.32307692307693" width="144" height="5.870769230769231" fill="#B22234"/><rect x="18" y="87.0646153846154" width="144" height="5.870769230769231" fill="#B22234"/><rect x="18" y="98.80615384615385" width="144" height="5.870769230769231" fill="#B22234"/><rect x="18" y="110.5476923076923" width="144" height="5.870769230769231" fill="#B22234"/><rect x="18" y="122.28923076923078" width="144" height="5.870769230769231" fill="#B22234"/>
  
  <!-- Blue union -->
  <rect x="18" y="51.839999999999996" width="57.6" height="41.21280000000001" fill="#3C3B6E"/>
  
  <!-- Stars -->
  <circle cx="22.8" cy="54.129599999999996" r="2.8125" fill="white"/><circle cx="32.4" cy="54.129599999999996" r="2.8125" fill="white"/><circle cx="42" cy="54.129599999999996" r="2.8125" fill="white"/><circle cx="51.599999999999994" cy="54.129599999999996" r="2.8125" fill="white"/><circle cx="61.199999999999996" cy="54.129599999999996" r="2.8125" fill="white"/><circle cx="70.8" cy="54.129599999999996" r="2.8125" fill="white"/><circle cx="29.519999999999996" cy="58.7088" r="2.8125" fill="white"/><circle cx="41.04" cy="58.7088" r="2.8125" fill="white"/><circle cx="52.559999999999995" cy="58.7088" r="2.8125" fill="white"/><circle cx="64.08" cy="58.7088" r="2.8125" fill="white"/><circle cx="75.60000000000001" cy="58.7088" r="2.8125" fill="white"/><circle cx="22.8" cy="63.288" r="2.8125" fill="white"/><circle cx="32.4" cy="63.288" r="2.8125" fill="white"/><circle cx="42" cy="63.288" r="2.8125" fill="white"/><circle cx="51.599999999999994" cy="63.288" r="2.8125" fill="white"/><circle cx="61.199999999999996" cy="63.288" r="2.8125" fill="white"/><circle cx="70.8" cy="63.288" r="2.8125" fill="white"/><circle cx="29.519999999999996" cy="67.86720000000001" r="2.8125" fill="white"/><circle cx="41.04" cy="67.86720000000001" r="2.8125" fill="white"/><circle cx="52.559999999999995" cy="67.86720000000001" r="2.8125" fill="white"/><circle cx="64.08" cy="67.86720000000001" r="2.8125" fill="white"/><circle cx="75.60000000000001" cy="67.86720000000001" r="2.8125" fill="white"/><circle cx="22.8" cy="72.44640000000001" r="2.8125" fill="white"/><circle cx="32.4" cy="72.44640000000001" r="2.8125" fill="white"/><circle cx="42" cy="72.44640000000001" r="2.8125" fill="white"/><circle cx="51.599999999999994" cy="72.44640000000001" r="2.8125" fill="white"/><circle cx="61.199999999999996" cy="72.44640000000001" r="2.8125" fill="white"/><circle cx="70.8" cy="72.44640000000001" r="2.8125" fill="white"/><circle cx="29.519999999999996" cy="77.02560000000001" r="2.8125" fill="white"/><circle cx="41.04" cy="77.02560000000001" r="2.8125" fill="white"/><circle cx="52.559999999999995" cy="77.02560000000001" r="2.8125" fill="white"/><circle cx="64.08" cy="77.02560000000001" r="2.8125" fill="white"/><circle cx="75.60000000000001" cy="77.02560000000001" r="2.8125" fill="white"/><circle cx="22.8" cy="81.60480000000001" r="2.8125" fill="white"/><circle cx="32.4" cy="81.60480000000001" r="2.8125" fill="white"/><circle cx="42" cy="81.60480000000001" r="2.8125" fill="white"/><circle cx="51.599999999999994" cy="81.60480000000001" r="2.8125" fill="white"/><circle cx="61.199999999999996" cy="81.60480000000001" r="2.8125" fill="white"/><circle cx="70.8" cy="81.60480000000001" r="2.8125" fill="white"/><circle cx="29.519999999999996" cy="86.18400000000001" r="2.8125" fill="white"/><circle cx="41.04" cy="86.18400000000001" r="2.8125" fill="white"/><circle cx="52.559999999999995" cy="86.18400000000001" r="2.8125" fill="white"/><circle cx="64.08" cy="86.18400000000001" r="2.8125" fill="white"/><circle cx="75.60000000000001" cy="86.18400000000001" r="2.8125" fill="white"/><circle cx="22.8" cy="90.76320000000001" r="2.8125" fill="white"/><circle cx="32.4" cy="90.76320000000001" r="2.8125" fill="white"/><circle cx="42" cy="90.76320000000001" r="2.8125" fill="white"/><circle cx="51.599999999999994" cy="90.76320000000001" r="2.8125" fill="white"/><circle cx="61.199999999999996" cy="90.76320000000001" r="2.8125" fill="white"/><circle cx="70.8" cy="90.76320000000001" r="2.8125" fill="white"/>
  
  <!-- Border -->
  <rect x="18" y="51.839999999999996" width="144" height="76.32000000000001" fill="none" stroke="rgba(0,0,0,0.2)" stroke-width="1"/>
</svg>