<?xml version="1.0" encoding="UTF-8"?>
<svg width="72" height="72" viewBox="0 0 72 72" xmlns="http://www.w3.org/2000/svg">
  <!-- White background -->
  <rect x="7.199999999999999" y="20.735999999999997" width="57.6" height="30.528000000000002" fill="white"/>
  
  <!-- Red stripes -->
  <rect x="7.199999999999999" y="20.735999999999997" width="57.6" height="2.3483076923076927" fill="#B22234"/><rect x="7.199999999999999" y="25.43261538461538" width="57.6" height="2.3483076923076927" fill="#B22234"/><rect x="7.199999999999999" y="30.129230769230766" width="57.6" height="2.3483076923076927" fill="#B22234"/><rect x="7.199999999999999" y="34.82584615384616" width="57.6" height="2.3483076923076927" fill="#B22234"/><rect x="7.199999999999999" y="39.52246153846154" width="57.6" height="2.3483076923076927" fill="#B22234"/><rect x="7.199999999999999" y="44.219076923076926" width="57.6" height="2.3483076923076927" fill="#B22234"/><rect x="7.199999999999999" y="48.91569230769231" width="57.6" height="2.3483076923076927" fill="#B22234"/>
  
  <!-- Blue union -->
  <rect x="7.199999999999999" y="20.735999999999997" width="23.040000000000003" height="16.485120000000002" fill="#3C3B6E"/>
  
  <!-- Stars -->
  <circle cx="9.12" cy="21.651839999999996" r="1.125" fill="white"/><circle cx="12.959999999999999" cy="21.651839999999996" r="1.125" fill="white"/><circle cx="16.8" cy="21.651839999999996" r="1.125" fill="white"/><circle cx="20.64" cy="21.651839999999996" r="1.125" fill="white"/><circle cx="24.480000000000004" cy="21.651839999999996" r="1.125" fill="white"/><circle cx="28.320000000000004" cy="21.651839999999996" r="1.125" fill="white"/><circle cx="11.808" cy="23.483519999999995" r="1.125" fill="white"/><circle cx="16.416" cy="23.483519999999995" r="1.125" fill="white"/><circle cx="21.024" cy="23.483519999999995" r="1.125" fill="white"/><circle cx="25.632000000000005" cy="23.483519999999995" r="1.125" fill="white"/><circle cx="30.240000000000002" cy="23.483519999999995" r="1.125" fill="white"/><circle cx="9.12" cy="25.315199999999997" r="1.125" fill="white"/><circle cx="12.959999999999999" cy="25.315199999999997" r="1.125" fill="white"/><circle cx="16.8" cy="25.315199999999997" r="1.125" fill="white"/><circle cx="20.64" cy="25.315199999999997" r="1.125" fill="white"/><circle cx="24.480000000000004" cy="25.315199999999997" r="1.125" fill="white"/><circle cx="28.320000000000004" cy="25.315199999999997" r="1.125" fill="white"/><circle cx="11.808" cy="27.146879999999996" r="1.125" fill="white"/><circle cx="16.416" cy="27.146879999999996" r="1.125" fill="white"/><circle cx="21.024" cy="27.146879999999996" r="1.125" fill="white"/><circle cx="25.632000000000005" cy="27.146879999999996" r="1.125" fill="white"/><circle cx="30.240000000000002" cy="27.146879999999996" r="1.125" fill="white"/><circle cx="9.12" cy="28.978559999999998" r="1.125" fill="white"/><circle cx="12.959999999999999" cy="28.978559999999998" r="1.125" fill="white"/><circle cx="16.8" cy="28.978559999999998" r="1.125" fill="white"/><circle cx="20.64" cy="28.978559999999998" r="1.125" fill="white"/><circle cx="24.480000000000004" cy="28.978559999999998" r="1.125" fill="white"/><circle cx="28.320000000000004" cy="28.978559999999998" r="1.125" fill="white"/><circle cx="11.808" cy="30.810239999999997" r="1.125" fill="white"/><circle cx="16.416" cy="30.810239999999997" r="1.125" fill="white"/><circle cx="21.024" cy="30.810239999999997" r="1.125" fill="white"/><circle cx="25.632000000000005" cy="30.810239999999997" r="1.125" fill="white"/><circle cx="30.240000000000002" cy="30.810239999999997" r="1.125" fill="white"/><circle cx="9.12" cy="32.64192" r="1.125" fill="white"/><circle cx="12.959999999999999" cy="32.64192" r="1.125" fill="white"/><circle cx="16.8" cy="32.64192" r="1.125" fill="white"/><circle cx="20.64" cy="32.64192" r="1.125" fill="white"/><circle cx="24.480000000000004" cy="32.64192" r="1.125" fill="white"/><circle cx="28.320000000000004" cy="32.64192" r="1.125" fill="white"/><circle cx="11.808" cy="34.473600000000005" r="1.125" fill="white"/><circle cx="16.416" cy="34.473600000000005" r="1.125" fill="white"/><circle cx="21.024" cy="34.473600000000005" r="1.125" fill="white"/><circle cx="25.632000000000005" cy="34.473600000000005" r="1.125" fill="white"/><circle cx="30.240000000000002" cy="34.473600000000005" r="1.125" fill="white"/><circle cx="9.12" cy="36.30528" r="1.125" fill="white"/><circle cx="12.959999999999999" cy="36.30528" r="1.125" fill="white"/><circle cx="16.8" cy="36.30528" r="1.125" fill="white"/><circle cx="20.64" cy="36.30528" r="1.125" fill="white"/><circle cx="24.480000000000004" cy="36.30528" r="1.125" fill="white"/><circle cx="28.320000000000004" cy="36.30528" r="1.125" fill="white"/>
  
  <!-- Border -->
  <rect x="7.199999999999999" y="20.735999999999997" width="57.6" height="30.528000000000002" fill="none" stroke="rgba(0,0,0,0.2)" stroke-width="1"/>
</svg>