<?xml version="1.0" encoding="UTF-8"?>
<svg width="384" height="384" viewBox="0 0 384 384" xmlns="http://www.w3.org/2000/svg">
  <!-- White background -->
  <rect x="38.39999999999998" y="110.59199999999998" width="307.20000000000005" height="162.81600000000003" fill="white"/>
  
  <!-- Red stripes -->
  <rect x="38.39999999999998" y="110.59199999999998" width="307.20000000000005" height="12.524307692307694" fill="#B22234"/><rect x="38.39999999999998" y="135.6406153846154" width="307.20000000000005" height="12.524307692307694" fill="#B22234"/><rect x="38.39999999999998" y="160.68923076923076" width="307.20000000000005" height="12.524307692307694" fill="#B22234"/><rect x="38.39999999999998" y="185.73784615384614" width="307.20000000000005" height="12.524307692307694" fill="#B22234"/><rect x="38.39999999999998" y="210.78646153846154" width="307.20000000000005" height="12.524307692307694" fill="#B22234"/><rect x="38.39999999999998" y="235.83507692307694" width="307.20000000000005" height="12.524307692307694" fill="#B22234"/><rect x="38.39999999999998" y="260.8836923076923" width="307.20000000000005" height="12.524307692307694" fill="#B22234"/>
  
  <!-- Blue union -->
  <rect x="38.39999999999998" y="110.59199999999998" width="122.88000000000002" height="87.92064000000002" fill="#3C3B6E"/>
  
  <!-- Stars -->
  <circle cx="48.63999999999998" cy="115.47647999999998" r="6" fill="white"/><circle cx="69.11999999999998" cy="115.47647999999998" r="6" fill="white"/><circle cx="89.6" cy="115.47647999999998" r="6" fill="white"/><circle cx="110.08000000000001" cy="115.47647999999998" r="6" fill="white"/><circle cx="130.56" cy="115.47647999999998" r="6" fill="white"/><circle cx="151.04000000000002" cy="115.47647999999998" r="6" fill="white"/><circle cx="62.975999999999985" cy="125.24543999999999" r="6" fill="white"/><circle cx="87.55199999999998" cy="125.24543999999999" r="6" fill="white"/><circle cx="112.12799999999999" cy="125.24543999999999" r="6" fill="white"/><circle cx="136.704" cy="125.24543999999999" r="6" fill="white"/><circle cx="161.28000000000003" cy="125.24543999999999" r="6" fill="white"/><circle cx="48.63999999999998" cy="135.0144" r="6" fill="white"/><circle cx="69.11999999999998" cy="135.0144" r="6" fill="white"/><circle cx="89.6" cy="135.0144" r="6" fill="white"/><circle cx="110.08000000000001" cy="135.0144" r="6" fill="white"/><circle cx="130.56" cy="135.0144" r="6" fill="white"/><circle cx="151.04000000000002" cy="135.0144" r="6" fill="white"/><circle cx="62.975999999999985" cy="144.78336" r="6" fill="white"/><circle cx="87.55199999999998" cy="144.78336" r="6" fill="white"/><circle cx="112.12799999999999" cy="144.78336" r="6" fill="white"/><circle cx="136.704" cy="144.78336" r="6" fill="white"/><circle cx="161.28000000000003" cy="144.78336" r="6" fill="white"/><circle cx="48.63999999999998" cy="154.55231999999998" r="6" fill="white"/><circle cx="69.11999999999998" cy="154.55231999999998" r="6" fill="white"/><circle cx="89.6" cy="154.55231999999998" r="6" fill="white"/><circle cx="110.08000000000001" cy="154.55231999999998" r="6" fill="white"/><circle cx="130.56" cy="154.55231999999998" r="6" fill="white"/><circle cx="151.04000000000002" cy="154.55231999999998" r="6" fill="white"/><circle cx="62.975999999999985" cy="164.32128" r="6" fill="white"/><circle cx="87.55199999999998" cy="164.32128" r="6" fill="white"/><circle cx="112.12799999999999" cy="164.32128" r="6" fill="white"/><circle cx="136.704" cy="164.32128" r="6" fill="white"/><circle cx="161.28000000000003" cy="164.32128" r="6" fill="white"/><circle cx="48.63999999999998" cy="174.09024" r="6" fill="white"/><circle cx="69.11999999999998" cy="174.09024" r="6" fill="white"/><circle cx="89.6" cy="174.09024" r="6" fill="white"/><circle cx="110.08000000000001" cy="174.09024" r="6" fill="white"/><circle cx="130.56" cy="174.09024" r="6" fill="white"/><circle cx="151.04000000000002" cy="174.09024" r="6" fill="white"/><circle cx="62.975999999999985" cy="183.8592" r="6" fill="white"/><circle cx="87.55199999999998" cy="183.8592" r="6" fill="white"/><circle cx="112.12799999999999" cy="183.8592" r="6" fill="white"/><circle cx="136.704" cy="183.8592" r="6" fill="white"/><circle cx="161.28000000000003" cy="183.8592" r="6" fill="white"/><circle cx="48.63999999999998" cy="193.62815999999998" r="6" fill="white"/><circle cx="69.11999999999998" cy="193.62815999999998" r="6" fill="white"/><circle cx="89.6" cy="193.62815999999998" r="6" fill="white"/><circle cx="110.08000000000001" cy="193.62815999999998" r="6" fill="white"/><circle cx="130.56" cy="193.62815999999998" r="6" fill="white"/><circle cx="151.04000000000002" cy="193.62815999999998" r="6" fill="white"/>
  
  <!-- Border -->
  <rect x="38.39999999999998" y="110.59199999999998" width="307.20000000000005" height="162.81600000000003" fill="none" stroke="rgba(0,0,0,0.2)" stroke-width="1"/>
</svg>