<?xml version="1.0" encoding="UTF-8"?>
<svg width="152" height="152" viewBox="0 0 152 152" xmlns="http://www.w3.org/2000/svg">
  <!-- White background -->
  <rect x="15.199999999999996" y="43.775999999999996" width="121.60000000000001" height="64.44800000000001" fill="white"/>
  
  <!-- Red stripes -->
  <rect x="15.199999999999996" y="43.775999999999996" width="121.60000000000001" height="4.957538461538462" fill="#B22234"/><rect x="15.199999999999996" y="53.69107692307692" width="121.60000000000001" height="4.957538461538462" fill="#B22234"/><rect x="15.199999999999996" y="63.606153846153845" width="121.60000000000001" height="4.957538461538462" fill="#B22234"/><rect x="15.199999999999996" y="73.52123076923077" width="121.60000000000001" height="4.957538461538462" fill="#B22234"/><rect x="15.199999999999996" y="83.4363076923077" width="121.60000000000001" height="4.957538461538462" fill="#B22234"/><rect x="15.199999999999996" y="93.35138461538462" width="121.60000000000001" height="4.957538461538462" fill="#B22234"/><rect x="15.199999999999996" y="103.26646153846154" width="121.60000000000001" height="4.957538461538462" fill="#B22234"/>
  
  <!-- Blue union -->
  <rect x="15.199999999999996" y="43.775999999999996" width="48.64000000000001" height="34.80192000000001" fill="#3C3B6E"/>
  
  <!-- Stars -->
  <circle cx="19.25333333333333" cy="45.709439999999994" r="2.375" fill="white"/><circle cx="27.36" cy="45.709439999999994" r="2.375" fill="white"/><circle cx="35.46666666666666" cy="45.709439999999994" r="2.375" fill="white"/><circle cx="43.57333333333333" cy="45.709439999999994" r="2.375" fill="white"/><circle cx="51.68" cy="45.709439999999994" r="2.375" fill="white"/><circle cx="59.78666666666667" cy="45.709439999999994" r="2.375" fill="white"/><circle cx="24.927999999999997" cy="49.576319999999996" r="2.375" fill="white"/><circle cx="34.656" cy="49.576319999999996" r="2.375" fill="white"/><circle cx="44.384" cy="49.576319999999996" r="2.375" fill="white"/><circle cx="54.11200000000001" cy="49.576319999999996" r="2.375" fill="white"/><circle cx="63.84" cy="49.576319999999996" r="2.375" fill="white"/><circle cx="19.25333333333333" cy="53.4432" r="2.375" fill="white"/><circle cx="27.36" cy="53.4432" r="2.375" fill="white"/><circle cx="35.46666666666666" cy="53.4432" r="2.375" fill="white"/><circle cx="43.57333333333333" cy="53.4432" r="2.375" fill="white"/><circle cx="51.68" cy="53.4432" r="2.375" fill="white"/><circle cx="59.78666666666667" cy="53.4432" r="2.375" fill="white"/><circle cx="24.927999999999997" cy="57.31008" r="2.375" fill="white"/><circle cx="34.656" cy="57.31008" r="2.375" fill="white"/><circle cx="44.384" cy="57.31008" r="2.375" fill="white"/><circle cx="54.11200000000001" cy="57.31008" r="2.375" fill="white"/><circle cx="63.84" cy="57.31008" r="2.375" fill="white"/><circle cx="19.25333333333333" cy="61.17696" r="2.375" fill="white"/><circle cx="27.36" cy="61.17696" r="2.375" fill="white"/><circle cx="35.46666666666666" cy="61.17696" r="2.375" fill="white"/><circle cx="43.57333333333333" cy="61.17696" r="2.375" fill="white"/><circle cx="51.68" cy="61.17696" r="2.375" fill="white"/><circle cx="59.78666666666667" cy="61.17696" r="2.375" fill="white"/><circle cx="24.927999999999997" cy="65.04384" r="2.375" fill="white"/><circle cx="34.656" cy="65.04384" r="2.375" fill="white"/><circle cx="44.384" cy="65.04384" r="2.375" fill="white"/><circle cx="54.11200000000001" cy="65.04384" r="2.375" fill="white"/><circle cx="63.84" cy="65.04384" r="2.375" fill="white"/><circle cx="19.25333333333333" cy="68.91072000000001" r="2.375" fill="white"/><circle cx="27.36" cy="68.91072000000001" r="2.375" fill="white"/><circle cx="35.46666666666666" cy="68.91072000000001" r="2.375" fill="white"/><circle cx="43.57333333333333" cy="68.91072000000001" r="2.375" fill="white"/><circle cx="51.68" cy="68.91072000000001" r="2.375" fill="white"/><circle cx="59.78666666666667" cy="68.91072000000001" r="2.375" fill="white"/><circle cx="24.927999999999997" cy="72.7776" r="2.375" fill="white"/><circle cx="34.656" cy="72.7776" r="2.375" fill="white"/><circle cx="44.384" cy="72.7776" r="2.375" fill="white"/><circle cx="54.11200000000001" cy="72.7776" r="2.375" fill="white"/><circle cx="63.84" cy="72.7776" r="2.375" fill="white"/><circle cx="19.25333333333333" cy="76.64448" r="2.375" fill="white"/><circle cx="27.36" cy="76.64448" r="2.375" fill="white"/><circle cx="35.46666666666666" cy="76.64448" r="2.375" fill="white"/><circle cx="43.57333333333333" cy="76.64448" r="2.375" fill="white"/><circle cx="51.68" cy="76.64448" r="2.375" fill="white"/><circle cx="59.78666666666667" cy="76.64448" r="2.375" fill="white"/>
  
  <!-- Border -->
  <rect x="15.199999999999996" y="43.775999999999996" width="121.60000000000001" height="64.44800000000001" fill="none" stroke="rgba(0,0,0,0.2)" stroke-width="1"/>
</svg>