<?xml version="1.0" encoding="UTF-8"?>
<svg width="512" height="512" viewBox="0 0 512 512" xmlns="http://www.w3.org/2000/svg">
  <!-- White background -->
  <rect x="51.19999999999999" y="147.456" width="409.6" height="217.08800000000002" fill="white"/>
  
  <!-- Red stripes -->
  <rect x="51.19999999999999" y="147.456" width="409.6" height="16.699076923076923" fill="#B22234"/><rect x="51.19999999999999" y="180.85415384615385" width="409.6" height="16.699076923076923" fill="#B22234"/><rect x="51.19999999999999" y="214.25230769230768" width="409.6" height="16.699076923076923" fill="#B22234"/><rect x="51.19999999999999" y="247.6504615384615" width="409.6" height="16.699076923076923" fill="#B22234"/><rect x="51.19999999999999" y="281.04861538461535" width="409.6" height="16.699076923076923" fill="#B22234"/><rect x="51.19999999999999" y="314.4467692307692" width="409.6" height="16.699076923076923" fill="#B22234"/><rect x="51.19999999999999" y="347.84492307692307" width="409.6" height="16.699076923076923" fill="#B22234"/>
  
  <!-- Blue union -->
  <rect x="51.19999999999999" y="147.456" width="163.84000000000003" height="117.22752000000003" fill="#3C3B6E"/>
  
  <!-- Stars -->
  <circle cx="64.85333333333332" cy="153.96864" r="8" fill="white"/><circle cx="92.16" cy="153.96864" r="8" fill="white"/><circle cx="119.46666666666667" cy="153.96864" r="8" fill="white"/><circle cx="146.77333333333334" cy="153.96864" r="8" fill="white"/><circle cx="174.08" cy="153.96864" r="8" fill="white"/><circle cx="201.38666666666668" cy="153.96864" r="8" fill="white"/><circle cx="83.96799999999999" cy="166.99392" r="8" fill="white"/><circle cx="116.73599999999999" cy="166.99392" r="8" fill="white"/><circle cx="149.50400000000002" cy="166.99392" r="8" fill="white"/><circle cx="182.27200000000005" cy="166.99392" r="8" fill="white"/><circle cx="215.04000000000005" cy="166.99392" r="8" fill="white"/><circle cx="64.85333333333332" cy="180.01919999999998" r="8" fill="white"/><circle cx="92.16" cy="180.01919999999998" r="8" fill="white"/><circle cx="119.46666666666667" cy="180.01919999999998" r="8" fill="white"/><circle cx="146.77333333333334" cy="180.01919999999998" r="8" fill="white"/><circle cx="174.08" cy="180.01919999999998" r="8" fill="white"/><circle cx="201.38666666666668" cy="180.01919999999998" r="8" fill="white"/><circle cx="83.96799999999999" cy="193.04448" r="8" fill="white"/><circle cx="116.73599999999999" cy="193.04448" r="8" fill="white"/><circle cx="149.50400000000002" cy="193.04448" r="8" fill="white"/><circle cx="182.27200000000005" cy="193.04448" r="8" fill="white"/><circle cx="215.04000000000005" cy="193.04448" r="8" fill="white"/><circle cx="64.85333333333332" cy="206.06976" r="8" fill="white"/><circle cx="92.16" cy="206.06976" r="8" fill="white"/><circle cx="119.46666666666667" cy="206.06976" r="8" fill="white"/><circle cx="146.77333333333334" cy="206.06976" r="8" fill="white"/><circle cx="174.08" cy="206.06976" r="8" fill="white"/><circle cx="201.38666666666668" cy="206.06976" r="8" fill="white"/><circle cx="83.96799999999999" cy="219.09504" r="8" fill="white"/><circle cx="116.73599999999999" cy="219.09504" r="8" fill="white"/><circle cx="149.50400000000002" cy="219.09504" r="8" fill="white"/><circle cx="182.27200000000005" cy="219.09504" r="8" fill="white"/><circle cx="215.04000000000005" cy="219.09504" r="8" fill="white"/><circle cx="64.85333333333332" cy="232.12032000000002" r="8" fill="white"/><circle cx="92.16" cy="232.12032000000002" r="8" fill="white"/><circle cx="119.46666666666667" cy="232.12032000000002" r="8" fill="white"/><circle cx="146.77333333333334" cy="232.12032000000002" r="8" fill="white"/><circle cx="174.08" cy="232.12032000000002" r="8" fill="white"/><circle cx="201.38666666666668" cy="232.12032000000002" r="8" fill="white"/><circle cx="83.96799999999999" cy="245.14560000000003" r="8" fill="white"/><circle cx="116.73599999999999" cy="245.14560000000003" r="8" fill="white"/><circle cx="149.50400000000002" cy="245.14560000000003" r="8" fill="white"/><circle cx="182.27200000000005" cy="245.14560000000003" r="8" fill="white"/><circle cx="215.04000000000005" cy="245.14560000000003" r="8" fill="white"/><circle cx="64.85333333333332" cy="258.17088" r="8" fill="white"/><circle cx="92.16" cy="258.17088" r="8" fill="white"/><circle cx="119.46666666666667" cy="258.17088" r="8" fill="white"/><circle cx="146.77333333333334" cy="258.17088" r="8" fill="white"/><circle cx="174.08" cy="258.17088" r="8" fill="white"/><circle cx="201.38666666666668" cy="258.17088" r="8" fill="white"/>
  
  <!-- Border -->
  <rect x="51.19999999999999" y="147.456" width="409.6" height="217.08800000000002" fill="none" stroke="rgba(0,0,0,0.2)" stroke-width="1"/>
</svg>