<?xml version="1.0" encoding="UTF-8"?>
<svg width="128" height="128" viewBox="0 0 128 128" xmlns="http://www.w3.org/2000/svg">
  <!-- White background -->
  <rect x="12.799999999999997" y="36.864" width="102.4" height="54.272000000000006" fill="white"/>
  
  <!-- Red stripes -->
  <rect x="12.799999999999997" y="36.864" width="102.4" height="4.174769230769231" fill="#B22234"/><rect x="12.799999999999997" y="45.21353846153846" width="102.4" height="4.174769230769231" fill="#B22234"/><rect x="12.799999999999997" y="53.56307692307692" width="102.4" height="4.174769230769231" fill="#B22234"/><rect x="12.799999999999997" y="61.91261538461538" width="102.4" height="4.174769230769231" fill="#B22234"/><rect x="12.799999999999997" y="70.26215384615384" width="102.4" height="4.174769230769231" fill="#B22234"/><rect x="12.799999999999997" y="78.6116923076923" width="102.4" height="4.174769230769231" fill="#B22234"/><rect x="12.799999999999997" y="86.96123076923077" width="102.4" height="4.174769230769231" fill="#B22234"/>
  
  <!-- Blue union -->
  <rect x="12.799999999999997" y="36.864" width="40.96000000000001" height="29.306880000000007" fill="#3C3B6E"/>
  
  <!-- Stars -->
  <circle cx="16.21333333333333" cy="38.49216" r="2" fill="white"/><circle cx="23.04" cy="38.49216" r="2" fill="white"/><circle cx="29.866666666666667" cy="38.49216" r="2" fill="white"/><circle cx="36.693333333333335" cy="38.49216" r="2" fill="white"/><circle cx="43.52" cy="38.49216" r="2" fill="white"/><circle cx="50.34666666666667" cy="38.49216" r="2" fill="white"/><circle cx="20.991999999999997" cy="41.74848" r="2" fill="white"/><circle cx="29.183999999999997" cy="41.74848" r="2" fill="white"/><circle cx="37.376000000000005" cy="41.74848" r="2" fill="white"/><circle cx="45.56800000000001" cy="41.74848" r="2" fill="white"/><circle cx="53.76000000000001" cy="41.74848" r="2" fill="white"/><circle cx="16.21333333333333" cy="45.004799999999996" r="2" fill="white"/><circle cx="23.04" cy="45.004799999999996" r="2" fill="white"/><circle cx="29.866666666666667" cy="45.004799999999996" r="2" fill="white"/><circle cx="36.693333333333335" cy="45.004799999999996" r="2" fill="white"/><circle cx="43.52" cy="45.004799999999996" r="2" fill="white"/><circle cx="50.34666666666667" cy="45.004799999999996" r="2" fill="white"/><circle cx="20.991999999999997" cy="48.26112" r="2" fill="white"/><circle cx="29.183999999999997" cy="48.26112" r="2" fill="white"/><circle cx="37.376000000000005" cy="48.26112" r="2" fill="white"/><circle cx="45.56800000000001" cy="48.26112" r="2" fill="white"/><circle cx="53.76000000000001" cy="48.26112" r="2" fill="white"/><circle cx="16.21333333333333" cy="51.51744" r="2" fill="white"/><circle cx="23.04" cy="51.51744" r="2" fill="white"/><circle cx="29.866666666666667" cy="51.51744" r="2" fill="white"/><circle cx="36.693333333333335" cy="51.51744" r="2" fill="white"/><circle cx="43.52" cy="51.51744" r="2" fill="white"/><circle cx="50.34666666666667" cy="51.51744" r="2" fill="white"/><circle cx="20.991999999999997" cy="54.77376" r="2" fill="white"/><circle cx="29.183999999999997" cy="54.77376" r="2" fill="white"/><circle cx="37.376000000000005" cy="54.77376" r="2" fill="white"/><circle cx="45.56800000000001" cy="54.77376" r="2" fill="white"/><circle cx="53.76000000000001" cy="54.77376" r="2" fill="white"/><circle cx="16.21333333333333" cy="58.030080000000005" r="2" fill="white"/><circle cx="23.04" cy="58.030080000000005" r="2" fill="white"/><circle cx="29.866666666666667" cy="58.030080000000005" r="2" fill="white"/><circle cx="36.693333333333335" cy="58.030080000000005" r="2" fill="white"/><circle cx="43.52" cy="58.030080000000005" r="2" fill="white"/><circle cx="50.34666666666667" cy="58.030080000000005" r="2" fill="white"/><circle cx="20.991999999999997" cy="61.28640000000001" r="2" fill="white"/><circle cx="29.183999999999997" cy="61.28640000000001" r="2" fill="white"/><circle cx="37.376000000000005" cy="61.28640000000001" r="2" fill="white"/><circle cx="45.56800000000001" cy="61.28640000000001" r="2" fill="white"/><circle cx="53.76000000000001" cy="61.28640000000001" r="2" fill="white"/><circle cx="16.21333333333333" cy="64.54272" r="2" fill="white"/><circle cx="23.04" cy="64.54272" r="2" fill="white"/><circle cx="29.866666666666667" cy="64.54272" r="2" fill="white"/><circle cx="36.693333333333335" cy="64.54272" r="2" fill="white"/><circle cx="43.52" cy="64.54272" r="2" fill="white"/><circle cx="50.34666666666667" cy="64.54272" r="2" fill="white"/>
  
  <!-- Border -->
  <rect x="12.799999999999997" y="36.864" width="102.4" height="54.272000000000006" fill="none" stroke="rgba(0,0,0,0.2)" stroke-width="1"/>
</svg>