<?xml version="1.0" encoding="UTF-8"?>
<svg width="144" height="144" viewBox="0 0 144 144" xmlns="http://www.w3.org/2000/svg">
  <!-- White background -->
  <rect x="14.399999999999999" y="41.471999999999994" width="115.2" height="61.056000000000004" fill="white"/>
  
  <!-- Red stripes -->
  <rect x="14.399999999999999" y="41.471999999999994" width="115.2" height="4.696615384615385" fill="#B22234"/><rect x="14.399999999999999" y="50.86523076923076" width="115.2" height="4.696615384615385" fill="#B22234"/><rect x="14.399999999999999" y="60.25846153846153" width="115.2" height="4.696615384615385" fill="#B22234"/><rect x="14.399999999999999" y="69.65169230769231" width="115.2" height="4.696615384615385" fill="#B22234"/><rect x="14.399999999999999" y="79.04492307692308" width="115.2" height="4.696615384615385" fill="#B22234"/><rect x="14.399999999999999" y="88.43815384615385" width="115.2" height="4.696615384615385" fill="#B22234"/><rect x="14.399999999999999" y="97.83138461538462" width="115.2" height="4.696615384615385" fill="#B22234"/>
  
  <!-- Blue union -->
  <rect x="14.399999999999999" y="41.471999999999994" width="46.080000000000005" height="32.970240000000004" fill="#3C3B6E"/>
  
  <!-- Stars -->
  <circle cx="18.24" cy="43.30367999999999" r="2.25" fill="white"/><circle cx="25.919999999999998" cy="43.30367999999999" r="2.25" fill="white"/><circle cx="33.6" cy="43.30367999999999" r="2.25" fill="white"/><circle cx="41.28" cy="43.30367999999999" r="2.25" fill="white"/><circle cx="48.96000000000001" cy="43.30367999999999" r="2.25" fill="white"/><circle cx="56.64000000000001" cy="43.30367999999999" r="2.25" fill="white"/><circle cx="23.616" cy="46.96703999999999" r="2.25" fill="white"/><circle cx="32.832" cy="46.96703999999999" r="2.25" fill="white"/><circle cx="42.048" cy="46.96703999999999" r="2.25" fill="white"/><circle cx="51.26400000000001" cy="46.96703999999999" r="2.25" fill="white"/><circle cx="60.480000000000004" cy="46.96703999999999" r="2.25" fill="white"/><circle cx="18.24" cy="50.630399999999995" r="2.25" fill="white"/><circle cx="25.919999999999998" cy="50.630399999999995" r="2.25" fill="white"/><circle cx="33.6" cy="50.630399999999995" r="2.25" fill="white"/><circle cx="41.28" cy="50.630399999999995" r="2.25" fill="white"/><circle cx="48.96000000000001" cy="50.630399999999995" r="2.25" fill="white"/><circle cx="56.64000000000001" cy="50.630399999999995" r="2.25" fill="white"/><circle cx="23.616" cy="54.29375999999999" r="2.25" fill="white"/><circle cx="32.832" cy="54.29375999999999" r="2.25" fill="white"/><circle cx="42.048" cy="54.29375999999999" r="2.25" fill="white"/><circle cx="51.26400000000001" cy="54.29375999999999" r="2.25" fill="white"/><circle cx="60.480000000000004" cy="54.29375999999999" r="2.25" fill="white"/><circle cx="18.24" cy="57.957119999999996" r="2.25" fill="white"/><circle cx="25.919999999999998" cy="57.957119999999996" r="2.25" fill="white"/><circle cx="33.6" cy="57.957119999999996" r="2.25" fill="white"/><circle cx="41.28" cy="57.957119999999996" r="2.25" fill="white"/><circle cx="48.96000000000001" cy="57.957119999999996" r="2.25" fill="white"/><circle cx="56.64000000000001" cy="57.957119999999996" r="2.25" fill="white"/><circle cx="23.616" cy="61.62047999999999" r="2.25" fill="white"/><circle cx="32.832" cy="61.62047999999999" r="2.25" fill="white"/><circle cx="42.048" cy="61.62047999999999" r="2.25" fill="white"/><circle cx="51.26400000000001" cy="61.62047999999999" r="2.25" fill="white"/><circle cx="60.480000000000004" cy="61.62047999999999" r="2.25" fill="white"/><circle cx="18.24" cy="65.28384" r="2.25" fill="white"/><circle cx="25.919999999999998" cy="65.28384" r="2.25" fill="white"/><circle cx="33.6" cy="65.28384" r="2.25" fill="white"/><circle cx="41.28" cy="65.28384" r="2.25" fill="white"/><circle cx="48.96000000000001" cy="65.28384" r="2.25" fill="white"/><circle cx="56.64000000000001" cy="65.28384" r="2.25" fill="white"/><circle cx="23.616" cy="68.94720000000001" r="2.25" fill="white"/><circle cx="32.832" cy="68.94720000000001" r="2.25" fill="white"/><circle cx="42.048" cy="68.94720000000001" r="2.25" fill="white"/><circle cx="51.26400000000001" cy="68.94720000000001" r="2.25" fill="white"/><circle cx="60.480000000000004" cy="68.94720000000001" r="2.25" fill="white"/><circle cx="18.24" cy="72.61056" r="2.25" fill="white"/><circle cx="25.919999999999998" cy="72.61056" r="2.25" fill="white"/><circle cx="33.6" cy="72.61056" r="2.25" fill="white"/><circle cx="41.28" cy="72.61056" r="2.25" fill="white"/><circle cx="48.96000000000001" cy="72.61056" r="2.25" fill="white"/><circle cx="56.64000000000001" cy="72.61056" r="2.25" fill="white"/>
  
  <!-- Border -->
  <rect x="14.399999999999999" y="41.471999999999994" width="115.2" height="61.056000000000004" fill="none" stroke="rgba(0,0,0,0.2)" stroke-width="1"/>
</svg>