<?xml version="1.0" encoding="UTF-8"?>
<svg width="192" height="192" viewBox="0 0 192 192" xmlns="http://www.w3.org/2000/svg">
  <!-- White background -->
  <rect x="19.19999999999999" y="55.29599999999999" width="153.60000000000002" height="81.40800000000002" fill="white"/>
  
  <!-- Red stripes -->
  <rect x="19.19999999999999" y="55.29599999999999" width="153.60000000000002" height="6.262153846153847" fill="#B22234"/><rect x="19.19999999999999" y="67.8203076923077" width="153.60000000000002" height="6.262153846153847" fill="#B22234"/><rect x="19.19999999999999" y="80.34461538461538" width="153.60000000000002" height="6.262153846153847" fill="#B22234"/><rect x="19.19999999999999" y="92.86892307692307" width="153.60000000000002" height="6.262153846153847" fill="#B22234"/><rect x="19.19999999999999" y="105.39323076923077" width="153.60000000000002" height="6.262153846153847" fill="#B22234"/><rect x="19.19999999999999" y="117.91753846153847" width="153.60000000000002" height="6.262153846153847" fill="#B22234"/><rect x="19.19999999999999" y="130.44184615384614" width="153.60000000000002" height="6.262153846153847" fill="#B22234"/>
  
  <!-- Blue union -->
  <rect x="19.19999999999999" y="55.29599999999999" width="61.44000000000001" height="43.96032000000001" fill="#3C3B6E"/>
  
  <!-- Stars -->
  <circle cx="24.31999999999999" cy="57.73823999999999" r="3" fill="white"/><circle cx="34.55999999999999" cy="57.73823999999999" r="3" fill="white"/><circle cx="44.8" cy="57.73823999999999" r="3" fill="white"/><circle cx="55.040000000000006" cy="57.73823999999999" r="3" fill="white"/><circle cx="65.28" cy="57.73823999999999" r="3" fill="white"/><circle cx="75.52000000000001" cy="57.73823999999999" r="3" fill="white"/><circle cx="31.487999999999992" cy="62.622719999999994" r="3" fill="white"/><circle cx="43.77599999999999" cy="62.622719999999994" r="3" fill="white"/><circle cx="56.06399999999999" cy="62.622719999999994" r="3" fill="white"/><circle cx="68.352" cy="62.622719999999994" r="3" fill="white"/><circle cx="80.64000000000001" cy="62.622719999999994" r="3" fill="white"/><circle cx="24.31999999999999" cy="67.5072" r="3" fill="white"/><circle cx="34.55999999999999" cy="67.5072" r="3" fill="white"/><circle cx="44.8" cy="67.5072" r="3" fill="white"/><circle cx="55.040000000000006" cy="67.5072" r="3" fill="white"/><circle cx="65.28" cy="67.5072" r="3" fill="white"/><circle cx="75.52000000000001" cy="67.5072" r="3" fill="white"/><circle cx="31.487999999999992" cy="72.39168" r="3" fill="white"/><circle cx="43.77599999999999" cy="72.39168" r="3" fill="white"/><circle cx="56.06399999999999" cy="72.39168" r="3" fill="white"/><circle cx="68.352" cy="72.39168" r="3" fill="white"/><circle cx="80.64000000000001" cy="72.39168" r="3" fill="white"/><circle cx="24.31999999999999" cy="77.27615999999999" r="3" fill="white"/><circle cx="34.55999999999999" cy="77.27615999999999" r="3" fill="white"/><circle cx="44.8" cy="77.27615999999999" r="3" fill="white"/><circle cx="55.040000000000006" cy="77.27615999999999" r="3" fill="white"/><circle cx="65.28" cy="77.27615999999999" r="3" fill="white"/><circle cx="75.52000000000001" cy="77.27615999999999" r="3" fill="white"/><circle cx="31.487999999999992" cy="82.16064" r="3" fill="white"/><circle cx="43.77599999999999" cy="82.16064" r="3" fill="white"/><circle cx="56.06399999999999" cy="82.16064" r="3" fill="white"/><circle cx="68.352" cy="82.16064" r="3" fill="white"/><circle cx="80.64000000000001" cy="82.16064" r="3" fill="white"/><circle cx="24.31999999999999" cy="87.04512" r="3" fill="white"/><circle cx="34.55999999999999" cy="87.04512" r="3" fill="white"/><circle cx="44.8" cy="87.04512" r="3" fill="white"/><circle cx="55.040000000000006" cy="87.04512" r="3" fill="white"/><circle cx="65.28" cy="87.04512" r="3" fill="white"/><circle cx="75.52000000000001" cy="87.04512" r="3" fill="white"/><circle cx="31.487999999999992" cy="91.9296" r="3" fill="white"/><circle cx="43.77599999999999" cy="91.9296" r="3" fill="white"/><circle cx="56.06399999999999" cy="91.9296" r="3" fill="white"/><circle cx="68.352" cy="91.9296" r="3" fill="white"/><circle cx="80.64000000000001" cy="91.9296" r="3" fill="white"/><circle cx="24.31999999999999" cy="96.81407999999999" r="3" fill="white"/><circle cx="34.55999999999999" cy="96.81407999999999" r="3" fill="white"/><circle cx="44.8" cy="96.81407999999999" r="3" fill="white"/><circle cx="55.040000000000006" cy="96.81407999999999" r="3" fill="white"/><circle cx="65.28" cy="96.81407999999999" r="3" fill="white"/><circle cx="75.52000000000001" cy="96.81407999999999" r="3" fill="white"/>
  
  <!-- Border -->
  <rect x="19.19999999999999" y="55.29599999999999" width="153.60000000000002" height="81.40800000000002" fill="none" stroke="rgba(0,0,0,0.2)" stroke-width="1"/>
</svg>