<?xml version="1.0" encoding="UTF-8"?>
<svg width="96" height="96" viewBox="0 0 96 96" xmlns="http://www.w3.org/2000/svg">
  <!-- White background -->
  <rect x="9.599999999999994" y="27.647999999999996" width="76.80000000000001" height="40.70400000000001" fill="white"/>
  
  <!-- Red stripes -->
  <rect x="9.599999999999994" y="27.647999999999996" width="76.80000000000001" height="3.1310769230769235" fill="#B22234"/><rect x="9.599999999999994" y="33.91015384615385" width="76.80000000000001" height="3.1310769230769235" fill="#B22234"/><rect x="9.599999999999994" y="40.17230769230769" width="76.80000000000001" height="3.1310769230769235" fill="#B22234"/><rect x="9.599999999999994" y="46.434461538461534" width="76.80000000000001" height="3.1310769230769235" fill="#B22234"/><rect x="9.599999999999994" y="52.696615384615384" width="76.80000000000001" height="3.1310769230769235" fill="#B22234"/><rect x="9.599999999999994" y="58.958769230769235" width="76.80000000000001" height="3.1310769230769235" fill="#B22234"/><rect x="9.599999999999994" y="65.22092307692307" width="76.80000000000001" height="3.1310769230769235" fill="#B22234"/>
  
  <!-- Blue union -->
  <rect x="9.599999999999994" y="27.647999999999996" width="30.720000000000006" height="21.980160000000005" fill="#3C3B6E"/>
  
  <!-- Stars -->
  <circle cx="12.159999999999995" cy="28.869119999999995" r="1.5" fill="white"/><circle cx="17.279999999999994" cy="28.869119999999995" r="1.5" fill="white"/><circle cx="22.4" cy="28.869119999999995" r="1.5" fill="white"/><circle cx="27.520000000000003" cy="28.869119999999995" r="1.5" fill="white"/><circle cx="32.64" cy="28.869119999999995" r="1.5" fill="white"/><circle cx="37.760000000000005" cy="28.869119999999995" r="1.5" fill="white"/><circle cx="15.743999999999996" cy="31.311359999999997" r="1.5" fill="white"/><circle cx="21.887999999999995" cy="31.311359999999997" r="1.5" fill="white"/><circle cx="28.031999999999996" cy="31.311359999999997" r="1.5" fill="white"/><circle cx="34.176" cy="31.311359999999997" r="1.5" fill="white"/><circle cx="40.32000000000001" cy="31.311359999999997" r="1.5" fill="white"/><circle cx="12.159999999999995" cy="33.7536" r="1.5" fill="white"/><circle cx="17.279999999999994" cy="33.7536" r="1.5" fill="white"/><circle cx="22.4" cy="33.7536" r="1.5" fill="white"/><circle cx="27.520000000000003" cy="33.7536" r="1.5" fill="white"/><circle cx="32.64" cy="33.7536" r="1.5" fill="white"/><circle cx="37.760000000000005" cy="33.7536" r="1.5" fill="white"/><circle cx="15.743999999999996" cy="36.19584" r="1.5" fill="white"/><circle cx="21.887999999999995" cy="36.19584" r="1.5" fill="white"/><circle cx="28.031999999999996" cy="36.19584" r="1.5" fill="white"/><circle cx="34.176" cy="36.19584" r="1.5" fill="white"/><circle cx="40.32000000000001" cy="36.19584" r="1.5" fill="white"/><circle cx="12.159999999999995" cy="38.638079999999995" r="1.5" fill="white"/><circle cx="17.279999999999994" cy="38.638079999999995" r="1.5" fill="white"/><circle cx="22.4" cy="38.638079999999995" r="1.5" fill="white"/><circle cx="27.520000000000003" cy="38.638079999999995" r="1.5" fill="white"/><circle cx="32.64" cy="38.638079999999995" r="1.5" fill="white"/><circle cx="37.760000000000005" cy="38.638079999999995" r="1.5" fill="white"/><circle cx="15.743999999999996" cy="41.08032" r="1.5" fill="white"/><circle cx="21.887999999999995" cy="41.08032" r="1.5" fill="white"/><circle cx="28.031999999999996" cy="41.08032" r="1.5" fill="white"/><circle cx="34.176" cy="41.08032" r="1.5" fill="white"/><circle cx="40.32000000000001" cy="41.08032" r="1.5" fill="white"/><circle cx="12.159999999999995" cy="43.52256" r="1.5" fill="white"/><circle cx="17.279999999999994" cy="43.52256" r="1.5" fill="white"/><circle cx="22.4" cy="43.52256" r="1.5" fill="white"/><circle cx="27.520000000000003" cy="43.52256" r="1.5" fill="white"/><circle cx="32.64" cy="43.52256" r="1.5" fill="white"/><circle cx="37.760000000000005" cy="43.52256" r="1.5" fill="white"/><circle cx="15.743999999999996" cy="45.9648" r="1.5" fill="white"/><circle cx="21.887999999999995" cy="45.9648" r="1.5" fill="white"/><circle cx="28.031999999999996" cy="45.9648" r="1.5" fill="white"/><circle cx="34.176" cy="45.9648" r="1.5" fill="white"/><circle cx="40.32000000000001" cy="45.9648" r="1.5" fill="white"/><circle cx="12.159999999999995" cy="48.407039999999995" r="1.5" fill="white"/><circle cx="17.279999999999994" cy="48.407039999999995" r="1.5" fill="white"/><circle cx="22.4" cy="48.407039999999995" r="1.5" fill="white"/><circle cx="27.520000000000003" cy="48.407039999999995" r="1.5" fill="white"/><circle cx="32.64" cy="48.407039999999995" r="1.5" fill="white"/><circle cx="37.760000000000005" cy="48.407039999999995" r="1.5" fill="white"/>
  
  <!-- Border -->
  <rect x="9.599999999999994" y="27.647999999999996" width="76.80000000000001" height="40.70400000000001" fill="none" stroke="rgba(0,0,0,0.2)" stroke-width="1"/>
</svg>